<svg xmlns="http://www.w3.org/2000/svg" width="1200" height="720" viewBox="0 0 1200 720"><defs><linearGradient id="g" x1="0" x2="1"><stop offset="0" stop-color="#0f2743"/><stop offset="1" stop-color="#1f7a62"/></linearGradient></defs><rect width="1200" height="720" fill="#eef3f8"/><rect x="40" y="40" width="1120" height="640" rx="36" fill="url(#g)"/><circle cx="935" cy="182" r="62" fill="#b79249" opacity=".9"/><rect x="92" y="136" width="360" height="26" rx="13" fill="#ffffff" opacity=".9"/><rect x="92" y="188" width="500" height="22" rx="11" fill="#ffffff" opacity=".78"/><rect x="92" y="232" width="440" height="22" rx="11" fill="#ffffff" opacity=".58"/><rect x="92" y="320" width="640" height="240" rx="26" fill="#ffffff" opacity=".12"/><path d="M136 504h176l84-110 96 66 115-150 122 173h129" fill="none" stroke="#ffffff" stroke-width="16" stroke-linecap="round" stroke-linejoin="round"/><rect x="800" y="332" width="236" height="154" rx="24" fill="#ffffff" opacity=".15"/><rect x="834" y="366" width="62" height="86" rx="12" fill="#b79249"/><rect x="914" y="392" width="62" height="60" rx="12" fill="#6bd0aa"/><text x="92" y="108" fill="#b8c9dd" font-size="28" font-family="Open Sans, Arial">Patrimoine Nouvelle Generation</text></svg>